<svg xmlns="http://www.w3.org/2000/svg" width="1200" height="800" viewBox="0 0 1200 800">
  <rect x="0" y="0" width="1200" height="800" fill="#ffffff"/>
  <rect x="60" y="90" width="220" height="140" fill="none" stroke="#000000" stroke-width="3"/>
  <text x="170" y="135" font-size="30" text-anchor="middle" font-family="Microsoft YaHei, SimHei, sans-serif">终端设备 100</text>
  <text x="170" y="180" font-size="22" text-anchor="middle" font-family="Microsoft YaHei, SimHei, sans-serif">SID / Cap / 算法集</text>

  <rect x="360" y="70" width="260" height="180" fill="none" stroke="#000000" stroke-width="3"/>
  <text x="490" y="115" font-size="30" text-anchor="middle" font-family="Microsoft YaHei, SimHei, sans-serif">边缘安全锚点 200</text>
  <text x="490" y="158" font-size="22" text-anchor="middle" font-family="Microsoft YaHei, SimHei, sans-serif">基础份额协商</text>
  <text x="490" y="190" font-size="22" text-anchor="middle" font-family="Microsoft YaHei, SimHei, sans-serif">增强片段调度与恢复</text>
  <text x="490" y="222" font-size="22" text-anchor="middle" font-family="Microsoft YaHei, SimHei, sans-serif">最终会话密钥切换</text>

  <rect x="700" y="70" width="280" height="180" fill="none" stroke="#000000" stroke-width="3"/>
  <text x="840" y="115" font-size="30" text-anchor="middle" font-family="Microsoft YaHei, SimHei, sans-serif">切片策略控制器 300</text>
  <text x="840" y="158" font-size="22" text-anchor="middle" font-family="Microsoft YaHei, SimHei, sans-serif">切片握手画像</text>
  <text x="840" y="190" font-size="22" text-anchor="middle" font-family="Microsoft YaHei, SimHei, sans-serif">阈值 / 时限 / 业务门控</text>
  <text x="840" y="222" font-size="22" text-anchor="middle" font-family="Microsoft YaHei, SimHei, sans-serif">握手计划决策</text>

  <rect x="860" y="420" width="240" height="140" fill="none" stroke="#000000" stroke-width="3"/>
  <text x="980" y="465" font-size="30" text-anchor="middle" font-family="Microsoft YaHei, SimHei, sans-serif">业务服务端 400</text>
  <text x="980" y="508" font-size="22" text-anchor="middle" font-family="Microsoft YaHei, SimHei, sans-serif">白名单早期业务</text>
  <text x="980" y="540" font-size="22" text-anchor="middle" font-family="Microsoft YaHei, SimHei, sans-serif">正式业务切换</text>

  <rect x="320" y="420" width="340" height="170" fill="none" stroke="#000000" stroke-width="3"/>
  <text x="490" y="465" font-size="30" text-anchor="middle" font-family="Microsoft YaHei, SimHei, sans-serif">协议核心机制</text>
  <text x="490" y="505" font-size="22" text-anchor="middle" font-family="Microsoft YaHei, SimHei, sans-serif">基础份额 + 增强密钥材料</text>
  <text x="490" y="537" font-size="22" text-anchor="middle" font-family="Microsoft YaHei, SimHei, sans-serif">阈值分片恢复</text>
  <text x="490" y="569" font-size="22" text-anchor="middle" font-family="Microsoft YaHei, SimHei, sans-serif">transcript 绑定与抗降级</text>

  <line x1="280" y1="160" x2="360" y2="160" stroke="#000000" stroke-width="3"/>
  <polygon points="360,160 344,152 344,168" fill="#000000"/>
  <text x="320" y="145" font-size="20" text-anchor="middle" font-family="Microsoft YaHei, SimHei, sans-serif">握手请求</text>

  <line x1="620" y1="125" x2="700" y2="125" stroke="#000000" stroke-width="3"/>
  <polygon points="700,125 684,117 684,133" fill="#000000"/>
  <text x="660" y="110" font-size="20" text-anchor="middle" font-family="Microsoft YaHei, SimHei, sans-serif">画像查询</text>

  <line x1="700" y1="205" x2="620" y2="205" stroke="#000000" stroke-width="3"/>
  <polygon points="620,205 636,197 636,213" fill="#000000"/>
  <text x="660" y="240" font-size="20" text-anchor="middle" font-family="Microsoft YaHei, SimHei, sans-serif">计划参数返回</text>

  <line x1="490" y1="250" x2="490" y2="420" stroke="#000000" stroke-width="3"/>
  <polygon points="490,420 482,404 498,404" fill="#000000"/>
  <text x="545" y="345" font-size="20" font-family="Microsoft YaHei, SimHei, sans-serif">生成增强片段</text>

  <line x1="660" y1="500" x2="860" y2="500" stroke="#000000" stroke-width="3"/>
  <polygon points="860,500 844,492 844,508" fill="#000000"/>
  <text x="760" y="485" font-size="20" text-anchor="middle" font-family="Microsoft YaHei, SimHei, sans-serif">会话密钥与业务门控</text>

  <line x1="280" y1="200" x2="860" y2="455" stroke="#000000" stroke-width="2" stroke-dasharray="10,8"/>
  <polygon points="860,455 847,442 841,457" fill="#000000"/>
  <text x="545" y="310" font-size="20" text-anchor="middle" font-family="Microsoft YaHei, SimHei, sans-serif">白名单早期业务</text>

  <line x1="280" y1="225" x2="860" y2="530" stroke="#000000" stroke-width="2" stroke-dasharray="10,8"/>
  <polygon points="860,530 847,517 841,532" fill="#000000"/>
  <text x="585" y="395" font-size="20" text-anchor="middle" font-family="Microsoft YaHei, SimHei, sans-serif">增强完成后切换正式业务</text>
</svg>
